<svg width="250" height="118" viewBox="0 0 250 118" fill="none" xmlns="http://www.w3.org/2000/svg">
<rect width="250" height="118" rx="5" fill="black" fill-opacity="0.2"/>
<path d="M92.8547 89.4951C92.8547 90.4326 92.5588 91.083 91.967 91.4463C91.3694 91.8154 90.3821 92 89.0051 92H83.6526V83H88.5305C89.8664 83 90.8362 83.1846 91.4397 83.5537C92.0491 83.9229 92.3537 84.5176 92.3537 85.3379C92.3537 85.625 92.3039 85.8916 92.2043 86.1377C92.1047 86.3779 91.9787 86.5625 91.8264 86.6914C91.5159 86.9551 91.2405 87.1162 91.0002 87.1748L90.842 87.21V87.3418C90.9885 87.3418 91.22 87.4062 91.5364 87.5352C91.7649 87.6348 91.97 87.752 92.1516 87.8867C92.3508 88.0391 92.5178 88.2588 92.6526 88.5459C92.7873 88.833 92.8547 89.1494 92.8547 89.4951ZM90.1916 89.2314C90.1916 88.5928 89.717 88.2734 88.7678 88.2734H86.2453V90.1631H88.7678C89.717 90.1631 90.1916 89.8525 90.1916 89.2314ZM86.2453 86.6035H88.4426C89.2688 86.6035 89.6819 86.3076 89.6819 85.7158C89.6819 85.1299 89.2688 84.8369 88.4426 84.8369H86.2453V86.6035ZM109.739 88.4756C109.739 89.7588 109.341 90.667 108.544 91.2002C107.747 91.7334 106.44 92 104.624 92H98.7968V79.3965H104.932C107.715 79.3965 109.106 80.5068 109.106 82.7275C109.106 83.0967 109.042 83.4453 108.913 83.7734C108.79 84.1016 108.632 84.3594 108.438 84.5469C108.063 84.9102 107.724 85.1504 107.419 85.2676L107.217 85.3203V85.4521C107.293 85.4639 107.387 85.4814 107.498 85.5049C107.621 85.5342 107.823 85.6162 108.104 85.751C108.409 85.9092 108.664 86.082 108.869 86.2695C109.109 86.4863 109.314 86.7939 109.484 87.1924C109.654 87.585 109.739 88.0127 109.739 88.4756ZM106.769 88.1855C106.769 87.1309 106.098 86.6035 104.756 86.6035H101.636V89.75H104.756C106.098 89.75 106.769 89.2285 106.769 88.1855ZM106.136 83.1055C106.136 82.1328 105.556 81.6465 104.395 81.6465H101.636V84.582H104.395C105.556 84.582 106.136 84.0898 106.136 83.1055ZM116.402 92.1758C114.878 92.1758 113.642 91.7627 112.693 90.9365C111.743 90.1104 111.269 88.9648 111.269 87.5C111.269 86.0352 111.743 84.8896 112.693 84.0635C113.642 83.2373 114.878 82.8242 116.402 82.8242C117.925 82.8242 119.161 83.2373 120.111 84.0635C121.06 84.8896 121.534 86.0352 121.534 87.5C121.534 88.9648 121.06 90.1104 120.111 90.9365C119.161 91.7627 117.925 92.1758 116.402 92.1758ZM116.402 89.9521C117.169 89.9521 117.773 89.7236 118.212 89.2666C118.652 88.8096 118.871 88.2207 118.871 87.5C118.871 86.7793 118.652 86.1904 118.212 85.7334C117.773 85.2764 117.169 85.0479 116.402 85.0479C115.628 85.0479 115.028 85.2764 114.6 85.7334C114.16 86.1904 113.941 86.7793 113.941 87.5C113.941 88.2207 114.16 88.8096 114.6 89.2666C115.028 89.7236 115.628 89.9521 116.402 89.9521ZM125.244 85.2324H121.878V83H131.22V85.2324H127.837V92H125.244V85.2324ZM136.529 92.1758C135.006 92.1758 133.77 91.7627 132.82 90.9365C131.871 90.1104 131.397 88.9648 131.397 87.5C131.397 86.0352 131.871 84.8896 132.82 84.0635C133.77 83.2373 135.006 82.8242 136.529 82.8242C137.373 82.8242 138.132 82.9561 138.806 83.2197C139.491 83.4893 140.022 83.8232 140.397 84.2217C141.164 85.0537 141.548 85.877 141.548 86.6914H138.885C138.838 86.5098 138.756 86.3193 138.639 86.1201C138.533 85.9502 138.401 85.7861 138.243 85.6279C138.067 85.4697 137.824 85.335 137.514 85.2236C137.209 85.1064 136.881 85.0479 136.529 85.0479C135.756 85.0479 135.155 85.2764 134.728 85.7334C134.288 86.1904 134.068 86.7793 134.068 87.5C134.068 88.2207 134.288 88.8096 134.728 89.2666C135.155 89.7236 135.756 89.9521 136.529 89.9521C137.127 89.9521 137.622 89.8115 138.015 89.5303C138.401 89.2666 138.645 88.9971 138.744 88.7217L138.885 88.3086H141.548C141.548 89.1289 141.164 89.9492 140.397 90.7695C140.027 91.1738 139.497 91.5107 138.806 91.7803C138.132 92.0439 137.373 92.1758 136.529 92.1758ZM142.902 89.46C142.902 88.5342 143.283 87.8398 144.044 87.377C144.806 86.9199 145.77 86.6914 146.936 86.6914C147.539 86.6914 148.081 86.7529 148.562 86.876C149.042 87.0107 149.376 87.1338 149.564 87.2451L149.854 87.4473V86.1289C149.854 85.7422 149.707 85.417 149.414 85.1533C149.121 84.8955 148.632 84.7666 147.947 84.7666C147.454 84.7666 147.015 84.8574 146.628 85.0391C146.224 85.2266 146.022 85.5137 146.022 85.9004H143.359C143.365 84.875 143.781 84.1045 144.607 83.5889C145.427 83.0791 146.54 82.8242 147.947 82.8242C149.371 82.8242 150.475 83.0996 151.26 83.6504C152.051 84.2012 152.447 85.0273 152.447 86.1289V88.9414C152.447 89.3047 152.491 89.5566 152.579 89.6973C152.666 89.8379 152.819 89.9082 153.036 89.9082L153.413 89.8379V92C153.191 92.1172 152.819 92.1758 152.297 92.1758C151.623 92.1758 151.114 92.0293 150.768 91.7363C150.457 91.4844 150.261 91.2529 150.179 91.042L150.126 90.9189H149.995C149.995 90.9424 149.965 90.9951 149.907 91.0771C149.848 91.1533 149.734 91.2588 149.564 91.3936C149.4 91.5283 149.204 91.6484 148.975 91.7539C148.377 92.0352 147.595 92.1758 146.628 92.1758C145.562 92.1758 144.674 91.9443 143.965 91.4814C143.256 91.0244 142.902 90.3506 142.902 89.46ZM147.692 90.2158C148.155 90.2158 148.571 90.1572 148.94 90.04C149.291 89.9287 149.535 89.8145 149.669 89.6973L149.854 89.5303V88.9941C149.807 88.9473 149.746 88.8975 149.669 88.8447C149.57 88.7803 149.338 88.7012 148.975 88.6074C148.588 88.5078 148.161 88.458 147.692 88.458C146.274 88.458 145.565 88.751 145.565 89.3369C145.565 89.9229 146.274 90.2158 147.692 90.2158ZM164.347 92H161.755V85.2324H157.448V92H154.855V83H164.347V92Z" fill="white"/>
<circle cx="125" cy="40" r="24" fill="#26D044"/>
<path fill-rule="evenodd" clip-rule="evenodd" d="M135.066 29.9238C132.528 27.3949 129.152 26.0015 125.556 26C118.146 26 112.116 32.0016 112.113 39.3784C112.112 41.7364 112.731 44.038 113.907 46.0671L112 53L119.127 51.1395C121.09 52.2054 123.301 52.7673 125.551 52.768H125.556C132.966 52.768 138.997 46.7657 139 39.3888C139.001 35.8141 137.604 32.4526 135.066 29.9238ZM125.556 50.5085H125.552C123.547 50.5077 121.58 49.9716 119.865 48.9584L119.457 48.7175L115.228 49.8215L116.357 45.718L116.091 45.297C114.972 43.5267 114.382 41.4803 114.383 39.379C114.385 33.2478 119.397 28.2597 125.561 28.2597C128.545 28.2607 131.351 29.4188 133.461 31.5209C135.57 33.6229 136.731 36.4168 136.73 39.3881C136.728 45.5199 131.715 50.5085 125.556 50.5085ZM131.685 42.1798C131.35 42.0126 129.698 41.2038 129.39 41.0922C129.082 40.9809 128.858 40.925 128.634 41.2597C128.411 41.5944 127.767 42.3473 127.571 42.5705C127.375 42.7935 127.179 42.8215 126.843 42.654C126.507 42.4868 125.425 42.1337 124.142 40.9948C123.143 40.1084 122.469 39.0137 122.273 38.6789C122.077 38.3442 122.252 38.1633 122.42 37.9966C122.571 37.8468 122.756 37.6061 122.924 37.4109C123.092 37.2158 123.148 37.0762 123.26 36.8531C123.372 36.6301 123.316 36.4348 123.232 36.2676C123.148 36.1001 122.476 34.4546 122.196 33.7852C121.924 33.1335 121.647 33.2217 121.441 33.2114C121.245 33.2017 121.021 33.1995 120.797 33.1995C120.573 33.1995 120.209 33.2832 119.901 33.6179C119.593 33.9526 118.726 34.7613 118.726 36.4068C118.726 38.0523 119.929 39.6419 120.097 39.8651C120.265 40.0881 122.466 43.4648 125.835 44.9129C126.637 45.2574 127.262 45.463 127.75 45.6172C128.555 45.8717 129.287 45.8356 129.866 45.7496C130.511 45.6536 131.853 44.9409 132.133 44.16C132.413 43.379 132.413 42.7097 132.329 42.5702C132.245 42.431 132.021 42.3473 131.685 42.1798Z" fill="white"/>
<circle cx="20" cy="20" r="12" fill="black" fill-opacity="0.2"/>
</svg>
