<svg width="477" height="320" viewBox="0 0 477 320" fill="none" xmlns="http://www.w3.org/2000/svg">
<g filter="url(#filter0_d_1247_3369)">
<rect x="48" y="28" width="381" height="224" rx="5" fill="white"/>
<path d="M173.697 147H169.912V139.898H161.791V147H158.005V130.195H161.791V136.582H169.912V130.195H173.697V147ZM190.01 141L189.94 141.914H179.979C179.979 142.633 180.264 143.25 180.834 143.766C181.389 144.289 182.19 144.551 183.236 144.551C183.83 144.551 184.361 144.449 184.83 144.246C185.275 144.043 185.568 143.84 185.709 143.637L185.932 143.355H189.717C189.701 143.465 189.666 143.602 189.611 143.766C189.549 143.961 189.377 144.27 189.096 144.691C188.799 145.152 188.443 145.551 188.029 145.887C187.576 146.238 186.94 146.547 186.119 146.812C185.26 147.094 184.299 147.234 183.236 147.234C181.19 147.234 179.529 146.684 178.256 145.582C176.983 144.48 176.346 142.953 176.346 141C176.346 139.047 176.979 137.52 178.244 136.418C179.51 135.316 181.158 134.766 183.19 134.766C185.205 134.766 186.846 135.316 188.111 136.418C189.377 137.52 190.01 139.047 190.01 141ZM185.522 138.188C184.967 137.695 184.19 137.449 183.19 137.449C182.19 137.449 181.416 137.699 180.869 138.199C180.307 138.707 180.025 139.242 180.025 139.805H186.33C186.33 139.227 186.061 138.688 185.522 138.188ZM210.46 147H207.003V137.977H201.261V147H197.804V135H210.46V147ZM214.011 141.867L214.89 135H225.238V147H221.781V137.977H217.925L217.316 142.652C217.105 144.285 216.679 145.457 216.039 146.168C215.398 146.879 214.488 147.234 213.308 147.234C212.746 147.234 212.3 147.172 211.972 147.047L211.773 147V144C212.039 144.062 212.289 144.094 212.523 144.094C212.976 144.094 213.312 143.918 213.531 143.566C213.75 143.207 213.91 142.641 214.011 141.867ZM227.629 143.613C227.629 142.379 228.137 141.453 229.152 140.836C230.168 140.227 231.453 139.922 233.008 139.922C233.812 139.922 234.535 140.004 235.176 140.168C235.816 140.348 236.262 140.512 236.512 140.66L236.898 140.93V139.172C236.898 138.656 236.703 138.223 236.312 137.871C235.922 137.527 235.27 137.355 234.355 137.355C233.699 137.355 233.113 137.477 232.598 137.719C232.059 137.969 231.789 138.352 231.789 138.867H228.238C228.246 137.5 228.801 136.473 229.902 135.785C230.996 135.105 232.48 134.766 234.355 134.766C236.254 134.766 237.727 135.133 238.773 135.867C239.828 136.602 240.355 137.703 240.355 139.172V142.922C240.355 143.406 240.414 143.742 240.531 143.93C240.648 144.117 240.852 144.211 241.141 144.211L241.645 144.117V147C241.348 147.156 240.852 147.234 240.156 147.234C239.258 147.234 238.578 147.039 238.117 146.648C237.703 146.312 237.441 146.004 237.332 145.723L237.262 145.559H237.086C237.086 145.59 237.047 145.66 236.969 145.77C236.891 145.871 236.738 146.012 236.512 146.191C236.293 146.371 236.031 146.531 235.727 146.672C234.93 147.047 233.887 147.234 232.598 147.234C231.176 147.234 229.992 146.926 229.047 146.309C228.102 145.699 227.629 144.801 227.629 143.613ZM234.016 144.621C234.633 144.621 235.188 144.543 235.68 144.387C236.148 144.238 236.473 144.086 236.652 143.93L236.898 143.707V142.992C236.836 142.93 236.754 142.863 236.652 142.793C236.52 142.707 236.211 142.602 235.727 142.477C235.211 142.344 234.641 142.277 234.016 142.277C232.125 142.277 231.18 142.668 231.18 143.449C231.18 144.23 232.125 144.621 234.016 144.621ZM256.2 147H252.743V142.488H247.024V147H243.567V135H247.024V139.512H252.743V135H256.2V147ZM272.009 147H268.552V139.805L268.845 138.234H268.599L268.048 139.805L263.395 147H259.071V135H262.528V142.195L262.247 143.637H262.481L263.032 142.195L267.696 135H272.009V147ZM286.904 136.441C288.013 137.551 288.568 139.07 288.568 141C288.568 142.93 288.013 144.449 286.904 145.559C285.787 146.676 284.404 147.234 282.755 147.234C281.849 147.234 281.044 147.09 280.341 146.801C279.623 146.52 279.13 146.234 278.865 145.945L278.49 145.535H278.337V151.805H274.88V135H278.337V136.969H278.513C278.591 136.797 278.79 136.539 279.111 136.195C279.361 135.945 279.63 135.723 279.919 135.527C280.24 135.316 280.654 135.137 281.162 134.988C281.677 134.84 282.208 134.766 282.755 134.766C284.404 134.766 285.787 135.324 286.904 136.441ZM284.115 143.273C284.716 142.688 285.017 141.93 285.017 141C285.017 140.078 284.716 139.316 284.115 138.715C283.513 138.129 282.701 137.836 281.677 137.836C280.654 137.836 279.841 138.129 279.24 138.715C278.638 139.316 278.337 140.078 278.337 141C278.337 141.953 278.642 142.715 279.251 143.285C279.861 143.871 280.669 144.164 281.677 144.164C282.708 144.164 283.521 143.867 284.115 143.273ZM288.685 135H292.283L296.103 143.402H296.291L299.432 135H302.982L297.967 147.234C297.248 148.969 296.498 150.203 295.717 150.938C294.935 151.672 293.912 152.039 292.646 152.039C292.404 152.039 292.096 152.02 291.721 151.98C291.408 151.949 291.139 151.906 290.912 151.852L290.607 151.805V148.781C291.053 148.984 291.635 149.078 292.353 149.062C292.916 149.062 293.346 148.938 293.642 148.688C293.947 148.422 294.236 147.938 294.51 147.234L288.685 135ZM307.635 135V139.605H309.487C309.487 139.566 309.491 139.523 309.498 139.477C309.506 139.422 309.518 139.359 309.534 139.289C309.549 139.211 309.561 139.145 309.569 139.09C309.6 138.895 309.748 138.508 310.014 137.93C310.272 137.375 310.596 136.883 310.987 136.453C311.377 136.031 311.975 135.645 312.78 135.293C313.577 134.941 314.495 134.766 315.534 134.766C317.487 134.766 319.006 135.332 320.092 136.465C321.178 137.598 321.721 139.109 321.721 141C321.721 142.891 321.178 144.402 320.092 145.535C319.006 146.668 317.487 147.234 315.534 147.234C314.495 147.234 313.577 147.07 312.78 146.742C311.975 146.43 311.377 146.035 310.987 145.559C310.604 145.105 310.288 144.648 310.038 144.188C309.788 143.719 309.627 143.312 309.557 142.969L309.487 142.488H307.635V147H304.178V135H307.635ZM317.491 143.332C317.944 142.715 318.17 141.938 318.17 141C318.17 140.062 317.944 139.285 317.491 138.668C317.03 138.043 316.381 137.73 315.545 137.73C314.702 137.73 314.049 138.043 313.588 138.668C313.127 139.293 312.897 140.07 312.897 141C312.897 141.93 313.127 142.707 313.588 143.332C314.049 143.957 314.702 144.27 315.545 144.27C316.381 144.27 317.03 143.957 317.491 143.332Z" fill="#1A1A1A"/>
</g>
<defs>
<filter id="filter0_d_1247_3369" x="0" y="0" width="477" height="320" filterUnits="userSpaceOnUse" color-interpolation-filters="sRGB">
<feFlood flood-opacity="0" result="BackgroundImageFix"/>
<feColorMatrix in="SourceAlpha" type="matrix" values="0 0 0 0 0 0 0 0 0 0 0 0 0 0 0 0 0 0 127 0" result="hardAlpha"/>
<feOffset dy="20"/>
<feGaussianBlur stdDeviation="24"/>
<feComposite in2="hardAlpha" operator="out"/>
<feColorMatrix type="matrix" values="0 0 0 0 0 0 0 0 0 0 0 0 0 0 0 0 0 0 0.12 0"/>
<feBlend mode="normal" in2="BackgroundImageFix" result="effect1_dropShadow_1247_3369"/>
<feBlend mode="normal" in="SourceGraphic" in2="effect1_dropShadow_1247_3369" result="shape"/>
</filter>
</defs>
</svg>
