<svg width="250" height="118" viewBox="0 0 250 118" fill="none" xmlns="http://www.w3.org/2000/svg">
<rect width="250" height="118" rx="5" fill="black" fill-opacity="0.2"/>
<path d="M82.4999 89.4951C82.4999 90.4326 82.204 91.083 81.6122 91.4463C81.0145 91.8154 80.0272 92 78.6503 92H73.2977V83H78.1757C79.5116 83 80.4813 83.1846 81.0848 83.5537C81.6942 83.9229 81.9989 84.5176 81.9989 85.3379C81.9989 85.625 81.9491 85.8916 81.8495 86.1377C81.7499 86.3779 81.6239 86.5625 81.4716 86.6914C81.161 86.9551 80.8856 87.1162 80.6454 87.1748L80.4872 87.21V87.3418C80.6337 87.3418 80.8651 87.4062 81.1815 87.5352C81.41 87.6348 81.6151 87.752 81.7968 87.8867C81.996 88.0391 82.163 88.2588 82.2977 88.5459C82.4325 88.833 82.4999 89.1494 82.4999 89.4951ZM79.8368 89.2314C79.8368 88.5928 79.3622 88.2734 78.413 88.2734H75.8905V90.1631H78.413C79.3622 90.1631 79.8368 89.8525 79.8368 89.2314ZM75.8905 86.6035H78.0878C78.9139 86.6035 79.327 86.3076 79.327 85.7158C79.327 85.1299 78.9139 84.8369 78.0878 84.8369H75.8905V86.6035ZM90.6744 81.8838H86.3766V79.3965H97.8199V81.8838H93.5221V92H90.6744V81.8838ZM107.26 87.5L107.207 88.1855H99.7363C99.7363 88.7246 99.9502 89.1875 100.378 89.5742C100.794 89.9668 101.394 90.1631 102.18 90.1631C102.625 90.1631 103.023 90.0869 103.375 89.9346C103.709 89.7822 103.929 89.6299 104.034 89.4775L104.201 89.2666H107.04C107.028 89.3486 107.002 89.4512 106.961 89.5742C106.914 89.7207 106.785 89.9521 106.574 90.2686C106.352 90.6143 106.085 90.9131 105.774 91.165C105.435 91.4287 104.957 91.6602 104.342 91.8594C103.697 92.0703 102.977 92.1758 102.18 92.1758C100.644 92.1758 99.3994 91.7627 98.4443 90.9365C97.4892 90.1104 97.0117 88.9648 97.0117 87.5C97.0117 86.0352 97.4863 84.8896 98.4355 84.0635C99.3847 83.2373 100.621 82.8242 102.144 82.8242C103.656 82.8242 104.887 83.2373 105.836 84.0635C106.785 84.8896 107.26 86.0352 107.26 87.5ZM103.894 85.3906C103.477 85.0215 102.894 84.8369 102.144 84.8369C101.394 84.8369 100.814 85.0244 100.404 85.3994C99.9824 85.7803 99.7714 86.1816 99.7714 86.6035H104.5C104.5 86.1699 104.298 85.7656 103.894 85.3906ZM109.563 88.1504L110.222 83H117.983V92H115.39V85.2324H112.498L112.041 88.7393C111.883 89.9639 111.564 90.8428 111.083 91.376C110.603 91.9092 109.92 92.1758 109.035 92.1758C108.614 92.1758 108.28 92.1289 108.034 92.0352L107.884 92V89.75C108.083 89.7969 108.271 89.8203 108.447 89.8203C108.786 89.8203 109.038 89.6885 109.202 89.4248C109.367 89.1553 109.487 88.7305 109.563 88.1504ZM130.024 87.5L129.971 88.1855H122.501C122.501 88.7246 122.715 89.1875 123.142 89.5742C123.558 89.9668 124.159 90.1631 124.944 90.1631C125.389 90.1631 125.788 90.0869 126.139 89.9346C126.473 89.7822 126.693 89.6299 126.799 89.4775L126.966 89.2666H129.804C129.793 89.3486 129.766 89.4512 129.725 89.5742C129.678 89.7207 129.549 89.9521 129.339 90.2686C129.116 90.6143 128.849 90.9131 128.539 91.165C128.199 91.4287 127.721 91.6602 127.106 91.8594C126.462 92.0703 125.741 92.1758 124.944 92.1758C123.409 92.1758 122.164 91.7627 121.209 90.9365C120.254 90.1104 119.776 88.9648 119.776 87.5C119.776 86.0352 120.251 84.8896 121.2 84.0635C122.149 83.2373 123.385 82.8242 124.909 82.8242C126.421 82.8242 127.651 83.2373 128.6 84.0635C129.549 84.8896 130.024 86.0352 130.024 87.5ZM126.658 85.3906C126.242 85.0215 125.659 84.8369 124.909 84.8369C124.159 84.8369 123.579 85.0244 123.169 85.3994C122.747 85.7803 122.536 86.1816 122.536 86.6035H127.264C127.264 86.1699 127.062 85.7656 126.658 85.3906ZM131.817 92V83H139.455V85.2324H134.41V92H131.817ZM149.633 84.0811C150.465 84.9131 150.881 86.0527 150.881 87.5C150.881 88.9473 150.465 90.0869 149.633 90.9189C148.795 91.7568 147.758 92.1758 146.522 92.1758C145.842 92.1758 145.239 92.0674 144.711 91.8506C144.172 91.6396 143.803 91.4258 143.604 91.209L143.323 90.9014H143.208V95.6035H140.616V83H143.208V84.4766H143.34C143.399 84.3477 143.548 84.1543 143.788 83.8965C143.976 83.709 144.178 83.542 144.395 83.3955C144.635 83.2373 144.946 83.1025 145.327 82.9912C145.713 82.8799 146.112 82.8242 146.522 82.8242C147.758 82.8242 148.795 83.2432 149.633 84.0811ZM147.541 89.2051C147.993 88.7656 148.218 88.1973 148.218 87.5C148.218 86.8086 147.993 86.2373 147.541 85.7861C147.09 85.3467 146.481 85.127 145.713 85.127C144.946 85.127 144.336 85.3467 143.885 85.7861C143.434 86.2373 143.208 86.8086 143.208 87.5C143.208 88.2148 143.437 88.7861 143.894 89.2139C144.351 89.6533 144.957 89.873 145.713 89.873C146.487 89.873 147.096 89.6504 147.541 89.2051ZM152.323 89.46C152.323 88.5342 152.704 87.8398 153.466 87.377C154.227 86.9199 155.191 86.6914 156.357 86.6914C156.961 86.6914 157.503 86.7529 157.983 86.876C158.464 87.0107 158.798 87.1338 158.985 87.2451L159.275 87.4473V86.1289C159.275 85.7422 159.129 85.417 158.836 85.1533C158.543 84.8955 158.053 84.7666 157.368 84.7666C156.876 84.7666 156.436 84.8574 156.05 85.0391C155.645 85.2266 155.443 85.5137 155.443 85.9004H152.78C152.786 84.875 153.202 84.1045 154.028 83.5889C154.848 83.0791 155.962 82.8242 157.368 82.8242C158.792 82.8242 159.896 83.0996 160.681 83.6504C161.472 84.2012 161.868 85.0273 161.868 86.1289V88.9414C161.868 89.3047 161.912 89.5566 162 89.6973C162.088 89.8379 162.24 89.9082 162.457 89.9082L162.835 89.8379V92C162.612 92.1172 162.24 92.1758 161.719 92.1758C161.045 92.1758 160.535 92.0293 160.189 91.7363C159.879 91.4844 159.682 91.2529 159.6 91.042L159.548 90.9189H159.416C159.416 90.9424 159.386 90.9951 159.328 91.0771C159.269 91.1533 159.155 91.2588 158.985 91.3936C158.821 91.5283 158.625 91.6484 158.396 91.7539C157.799 92.0352 157.016 92.1758 156.05 92.1758C154.983 92.1758 154.095 91.9443 153.386 91.4814C152.678 91.0244 152.323 90.3506 152.323 89.46ZM157.113 90.2158C157.576 90.2158 157.992 90.1572 158.361 90.04C158.713 89.9287 158.956 89.8145 159.091 89.6973L159.275 89.5303V88.9941C159.228 88.9473 159.167 88.8975 159.091 88.8447C158.991 88.7803 158.76 88.7012 158.396 88.6074C158.01 88.5078 157.582 88.458 157.113 88.458C155.695 88.458 154.986 88.751 154.986 89.3369C154.986 89.9229 155.695 90.2158 157.113 90.2158ZM169.989 87.9131H170.077L170.2 86.9199L172.09 83H175.693V92H173.101V86.832L173.294 85.7686H173.083L172.758 86.832L171.229 89.8027H168.741L167.212 86.832L166.887 85.7686H166.676L166.869 86.832V92H164.276V83H167.88L169.77 86.9199L169.893 87.9131H169.989Z" fill="white"/>
<circle cx="125" cy="40" r="24" fill="#28A8EA"/>
<path fill-rule="evenodd" clip-rule="evenodd" d="M111.712 39.351C118.421 35.9747 122.888 33.7313 125.131 32.6428C131.514 29.5553 132.856 29.0222 133.719 29C133.911 29 134.332 29.0444 134.62 29.311C134.85 29.5331 134.907 29.8219 134.946 30.044C134.984 30.2661 135.022 30.7326 134.984 31.088C134.639 35.3083 133.144 45.5483 132.377 50.2573C132.051 52.2564 131.418 52.9228 130.805 52.9894C129.463 53.1227 128.447 51.9677 127.163 50.9903C125.131 49.4577 124 48.5025 122.025 46.9921C119.744 45.2595 121.22 44.3044 122.524 42.7495C122.869 42.3497 128.754 36.1302 128.869 35.5749C128.888 35.5082 128.888 35.2417 128.754 35.1084C128.62 34.9751 128.428 35.0196 128.275 35.064C128.064 35.1084 124.843 37.5962 118.575 42.5052C117.654 43.2382 116.83 43.5936 116.082 43.5714C115.258 43.5492 113.686 43.0383 112.498 42.594C111.06 42.0609 109.91 41.7722 110.006 40.8392C110.063 40.3506 110.638 39.8619 111.712 39.351Z" fill="white"/>
<circle cx="20" cy="20" r="12" fill="black" fill-opacity="0.2"/>
</svg>
