<svg width="477" height="320" viewBox="0 0 477 320" fill="none" xmlns="http://www.w3.org/2000/svg">
<g filter="url(#filter0_d_1247_3365)">
<rect x="48" y="28" width="381" height="224" rx="5" fill="white"/>
<path d="M157.343 150.844H153.546V143.812H154.437C154.999 143.812 155.429 143.551 155.726 143.027C156.031 142.504 156.242 141.707 156.359 140.637L157.507 130.195H170.081V143.812H172.413V150.844H168.617V147H157.343V150.844ZM158.761 143.66V143.812H166.296V133.395H160.964L160.097 140.93C159.964 141.914 159.761 142.609 159.488 143.016C159.261 143.352 159.05 143.559 158.855 143.637L158.761 143.66ZM173.597 143.613C173.597 142.379 174.105 141.453 175.121 140.836C176.137 140.227 177.422 139.922 178.976 139.922C179.781 139.922 180.504 140.004 181.144 140.168C181.785 140.348 182.23 140.512 182.48 140.66L182.867 140.93V139.172C182.867 138.656 182.672 138.223 182.281 137.871C181.89 137.527 181.238 137.355 180.324 137.355C179.668 137.355 179.082 137.477 178.566 137.719C178.027 137.969 177.758 138.352 177.758 138.867H174.207C174.215 137.5 174.769 136.473 175.871 135.785C176.965 135.105 178.449 134.766 180.324 134.766C182.222 134.766 183.695 135.133 184.742 135.867C185.797 136.602 186.324 137.703 186.324 139.172V142.922C186.324 143.406 186.383 143.742 186.5 143.93C186.617 144.117 186.82 144.211 187.109 144.211L187.613 144.117V147C187.316 147.156 186.82 147.234 186.125 147.234C185.226 147.234 184.547 147.039 184.086 146.648C183.672 146.312 183.41 146.004 183.301 145.723L183.23 145.559H183.055C183.055 145.59 183.015 145.66 182.937 145.77C182.859 145.871 182.707 146.012 182.48 146.191C182.262 146.371 182 146.531 181.695 146.672C180.898 147.047 179.855 147.234 178.566 147.234C177.144 147.234 175.961 146.926 175.015 146.309C174.07 145.699 173.597 144.801 173.597 143.613ZM179.984 144.621C180.601 144.621 181.156 144.543 181.648 144.387C182.117 144.238 182.441 144.086 182.621 143.93L182.867 143.707V142.992C182.805 142.93 182.722 142.863 182.621 142.793C182.488 142.707 182.18 142.602 181.695 142.477C181.18 142.344 180.609 142.277 179.984 142.277C178.094 142.277 177.148 142.668 177.148 143.449C177.148 144.23 178.094 144.621 179.984 144.621ZM190.649 150.094V148.324C190.649 148.105 190.625 147.918 190.578 147.762C190.539 147.605 190.469 147.48 190.368 147.387C190.274 147.293 190.188 147.223 190.11 147.176C190.039 147.129 189.93 147.074 189.782 147.012C189.633 146.957 189.532 146.918 189.477 146.895C189.039 146.676 188.821 146.152 188.821 145.324C188.821 144.738 189.004 144.273 189.371 143.93C189.739 143.578 190.235 143.402 190.86 143.402C191.547 143.402 192.055 143.594 192.383 143.977C192.711 144.359 192.883 144.961 192.899 145.781C192.899 147.133 192.684 148.188 192.254 148.945C191.817 149.711 191.282 150.094 190.649 150.094ZM213.115 147H209.658V137.977H203.915V147H200.458V135H213.115V147ZM216.666 141.867L217.545 135H227.892V147H224.435V137.977H220.58L219.97 142.652C219.76 144.285 219.334 145.457 218.693 146.168C218.052 146.879 217.142 147.234 215.963 147.234C215.4 147.234 214.955 147.172 214.627 147.047L214.427 147V144C214.693 144.062 214.943 144.094 215.177 144.094C215.631 144.094 215.967 143.918 216.185 143.566C216.404 143.207 216.564 142.641 216.666 141.867ZM230.283 143.613C230.283 142.379 230.791 141.453 231.807 140.836C232.823 140.227 234.108 139.922 235.662 139.922C236.467 139.922 237.19 140.004 237.83 140.168C238.471 140.348 238.916 140.512 239.166 140.66L239.553 140.93V139.172C239.553 138.656 239.358 138.223 238.967 137.871C238.576 137.527 237.924 137.355 237.01 137.355C236.354 137.355 235.768 137.477 235.252 137.719C234.713 137.969 234.444 138.352 234.444 138.867H230.893C230.901 137.5 231.455 136.473 232.557 135.785C233.651 135.105 235.135 134.766 237.01 134.766C238.908 134.766 240.381 135.133 241.428 135.867C242.483 136.602 243.01 137.703 243.01 139.172V142.922C243.01 143.406 243.069 143.742 243.186 143.93C243.303 144.117 243.506 144.211 243.795 144.211L244.299 144.117V147C244.002 147.156 243.506 147.234 242.811 147.234C241.912 147.234 241.233 147.039 240.772 146.648C240.358 146.312 240.096 146.004 239.987 145.723L239.916 145.559H239.74C239.74 145.59 239.701 145.66 239.623 145.77C239.545 145.871 239.393 146.012 239.166 146.191C238.948 146.371 238.686 146.531 238.381 146.672C237.584 147.047 236.541 147.234 235.252 147.234C233.83 147.234 232.647 146.926 231.701 146.309C230.756 145.699 230.283 144.801 230.283 143.613ZM236.67 144.621C237.287 144.621 237.842 144.543 238.334 144.387C238.803 144.238 239.127 144.086 239.307 143.93L239.553 143.707V142.992C239.49 142.93 239.408 142.863 239.307 142.793C239.174 142.707 238.865 142.602 238.381 142.477C237.865 142.344 237.295 142.277 236.67 142.277C234.78 142.277 233.834 142.668 233.834 143.449C233.834 144.23 234.78 144.621 236.67 144.621ZM258.854 147H255.397V142.488H249.678V147H246.221V135H249.678V139.512H255.397V135H258.854V147ZM274.663 147H271.206V139.805L271.499 138.234H271.253L270.702 139.805L266.05 147H261.726V135H265.183V142.195L264.902 143.637H265.136L265.687 142.195L270.351 135H274.663V147ZM289.558 136.441C290.668 137.551 291.222 139.07 291.222 141C291.222 142.93 290.668 144.449 289.558 145.559C288.441 146.676 287.058 147.234 285.41 147.234C284.504 147.234 283.699 147.09 282.996 146.801C282.277 146.52 281.785 146.234 281.519 145.945L281.144 145.535H280.992V151.805H277.535V135H280.992V136.969H281.168C281.246 136.797 281.445 136.539 281.765 136.195C282.015 135.945 282.285 135.723 282.574 135.527C282.894 135.316 283.308 135.137 283.816 134.988C284.332 134.84 284.863 134.766 285.41 134.766C287.058 134.766 288.441 135.324 289.558 136.441ZM286.769 143.273C287.371 142.688 287.672 141.93 287.672 141C287.672 140.078 287.371 139.316 286.769 138.715C286.168 138.129 285.355 137.836 284.332 137.836C283.308 137.836 282.496 138.129 281.894 138.715C281.293 139.316 280.992 140.078 280.992 141C280.992 141.953 281.297 142.715 281.906 143.285C282.515 143.871 283.324 144.164 284.332 144.164C285.363 144.164 286.175 143.867 286.769 143.273ZM291.34 135H294.938L298.758 143.402H298.945L302.086 135H305.637L300.621 147.234C299.902 148.969 299.152 150.203 298.371 150.938C297.59 151.672 296.567 152.039 295.301 152.039C295.059 152.039 294.75 152.02 294.375 151.98C294.063 151.949 293.793 151.906 293.567 151.852L293.262 151.805V148.781C293.707 148.984 294.289 149.078 295.008 149.062C295.57 149.062 296 148.938 296.297 148.688C296.602 148.422 296.891 147.938 297.164 147.234L291.34 135ZM310.29 135V139.605H312.141C312.141 139.566 312.145 139.523 312.153 139.477C312.161 139.422 312.173 139.359 312.188 139.289C312.204 139.211 312.215 139.145 312.223 139.09C312.255 138.895 312.403 138.508 312.669 137.93C312.926 137.375 313.251 136.883 313.641 136.453C314.032 136.031 314.63 135.645 315.434 135.293C316.231 134.941 317.149 134.766 318.188 134.766C320.141 134.766 321.661 135.332 322.747 136.465C323.833 137.598 324.376 139.109 324.376 141C324.376 142.891 323.833 144.402 322.747 145.535C321.661 146.668 320.141 147.234 318.188 147.234C317.149 147.234 316.231 147.07 315.434 146.742C314.63 146.43 314.032 146.035 313.641 145.559C313.258 145.105 312.942 144.648 312.692 144.188C312.442 143.719 312.282 143.312 312.212 142.969L312.141 142.488H310.29V147H306.833V135H310.29ZM320.145 143.332C320.598 142.715 320.825 141.938 320.825 141C320.825 140.062 320.598 139.285 320.145 138.668C319.684 138.043 319.036 137.73 318.2 137.73C317.356 137.73 316.704 138.043 316.243 138.668C315.782 139.293 315.551 140.07 315.551 141C315.551 141.93 315.782 142.707 316.243 143.332C316.704 143.957 317.356 144.27 318.2 144.27C319.036 144.27 319.684 143.957 320.145 143.332Z" fill="#1A1A1A"/>
</g>
<defs>
<filter id="filter0_d_1247_3365" x="0" y="0" width="477" height="320" filterUnits="userSpaceOnUse" color-interpolation-filters="sRGB">
<feFlood flood-opacity="0" result="BackgroundImageFix"/>
<feColorMatrix in="SourceAlpha" type="matrix" values="0 0 0 0 0 0 0 0 0 0 0 0 0 0 0 0 0 0 127 0" result="hardAlpha"/>
<feOffset dy="20"/>
<feGaussianBlur stdDeviation="24"/>
<feComposite in2="hardAlpha" operator="out"/>
<feColorMatrix type="matrix" values="0 0 0 0 0 0 0 0 0 0 0 0 0 0 0 0 0 0 0.12 0"/>
<feBlend mode="normal" in2="BackgroundImageFix" result="effect1_dropShadow_1247_3365"/>
<feBlend mode="normal" in="SourceGraphic" in2="effect1_dropShadow_1247_3365" result="shape"/>
</filter>
</defs>
</svg>
