<svg width="250" height="118" viewBox="0 0 250 118" fill="none" xmlns="http://www.w3.org/2000/svg">
<rect width="250" height="118" rx="5" fill="black" fill-opacity="0.2"/>
<path d="M90.8596 89.4951C90.8596 90.4326 90.5637 91.083 89.9719 91.4463C89.3743 91.8154 88.387 92 87.01 92H81.6575V83H86.5354C87.8713 83 88.8411 83.1846 89.4446 83.5537C90.0539 83.9229 90.3586 84.5176 90.3586 85.3379C90.3586 85.625 90.3088 85.8916 90.2092 86.1377C90.1096 86.3779 89.9836 86.5625 89.8313 86.6914C89.5207 86.9551 89.2453 87.1162 89.0051 87.1748L88.8469 87.21V87.3418C88.9934 87.3418 89.2248 87.4062 89.5412 87.5352C89.7698 87.6348 89.9748 87.752 90.1565 87.8867C90.3557 88.0391 90.5227 88.2588 90.6575 88.5459C90.7922 88.833 90.8596 89.1494 90.8596 89.4951ZM88.1965 89.2314C88.1965 88.5928 87.7219 88.2734 86.7727 88.2734H84.2502V90.1631H86.7727C87.7219 90.1631 88.1965 89.8525 88.1965 89.2314ZM84.2502 86.6035H86.4475C87.2737 86.6035 87.6868 86.3076 87.6868 85.7158C87.6868 85.1299 87.2737 84.8369 86.4475 84.8369H84.2502V86.6035ZM107.744 88.4756C107.744 89.7588 107.346 90.667 106.549 91.2002C105.752 91.7334 104.445 92 102.629 92H96.8017V79.3965H102.936C105.72 79.3965 107.111 80.5068 107.111 82.7275C107.111 83.0967 107.047 83.4453 106.918 83.7734C106.795 84.1016 106.637 84.3594 106.443 84.5469C106.068 84.9102 105.728 85.1504 105.424 85.2676L105.222 85.3203V85.4521C105.298 85.4639 105.392 85.4814 105.503 85.5049C105.626 85.5342 105.828 85.6162 106.109 85.751C106.414 85.9092 106.669 86.082 106.874 86.2695C107.114 86.4863 107.319 86.7939 107.489 87.1924C107.659 87.585 107.744 88.0127 107.744 88.4756ZM104.773 88.1855C104.773 87.1309 104.102 86.6035 102.761 86.6035H99.6406V89.75H102.761C104.102 89.75 104.773 89.2285 104.773 88.1855ZM104.141 83.1055C104.141 82.1328 103.561 81.6465 102.4 81.6465H99.6406V84.582H102.4C103.561 84.582 104.141 84.0898 104.141 83.1055ZM109.274 89.46C109.274 88.5342 109.655 87.8398 110.416 87.377C111.178 86.9199 112.142 86.6914 113.308 86.6914C113.911 86.6914 114.453 86.7529 114.934 86.876C115.414 87.0107 115.748 87.1338 115.936 87.2451L116.226 87.4473V86.1289C116.226 85.7422 116.079 85.417 115.786 85.1533C115.493 84.8955 115.004 84.7666 114.319 84.7666C113.826 84.7666 113.387 84.8574 113 85.0391C112.596 85.2266 112.394 85.5137 112.394 85.9004H109.731C109.737 84.875 110.153 84.1045 110.979 83.5889C111.799 83.0791 112.912 82.8242 114.319 82.8242C115.742 82.8242 116.847 83.0996 117.632 83.6504C118.423 84.2012 118.819 85.0273 118.819 86.1289V88.9414C118.819 89.3047 118.863 89.5566 118.951 89.6973C119.038 89.8379 119.191 89.9082 119.408 89.9082L119.785 89.8379V92C119.563 92.1172 119.191 92.1758 118.669 92.1758C117.995 92.1758 117.486 92.0293 117.14 91.7363C116.829 91.4844 116.633 91.2529 116.551 91.042L116.498 90.9189H116.367C116.367 90.9424 116.337 90.9951 116.279 91.0771C116.22 91.1533 116.106 91.2588 115.936 91.3936C115.772 91.5283 115.576 91.6484 115.347 91.7539C114.749 92.0352 113.967 92.1758 113 92.1758C111.934 92.1758 111.046 91.9443 110.337 91.4814C109.628 91.0244 109.274 90.3506 109.274 89.46ZM114.064 90.2158C114.527 90.2158 114.943 90.1572 115.312 90.04C115.663 89.9287 115.907 89.8145 116.041 89.6973L116.226 89.5303V88.9941C116.179 88.9473 116.117 88.8975 116.041 88.8447C115.942 88.7803 115.71 88.7012 115.347 88.6074C114.96 88.5078 114.533 88.458 114.064 88.458C112.646 88.458 111.937 88.751 111.937 89.3369C111.937 89.9229 112.646 90.2158 114.064 90.2158ZM128.918 79.5811V79.6338C128.918 81.1455 127.957 81.9014 126.035 81.9014C124.113 81.9014 123.152 81.1455 123.152 79.6338V79.5811H124.989V79.6338C124.989 79.8506 125.077 80.0293 125.253 80.1699C125.434 80.3047 125.698 80.3721 126.044 80.3721C126.389 80.3721 126.647 80.3047 126.817 80.1699C126.993 80.0293 127.081 79.8506 127.081 79.6338V79.5811H128.918ZM130.93 92H128.338V86.6035L128.557 85.4258H128.373L127.96 86.6035L124.47 92H121.227V83H123.82V88.3965L123.609 89.4775H123.785L124.198 88.3965L127.696 83H130.93V92ZM135.501 84.9775H135.589C135.642 84.8955 135.768 84.7725 135.967 84.6084C136.119 84.4912 136.298 84.3828 136.503 84.2832C137.042 84.0371 137.722 83.9141 138.542 83.9141C139.913 83.9141 140.991 84.2773 141.776 85.0039C142.562 85.7363 142.954 86.7412 142.954 88.0186C142.954 89.3076 142.488 90.3213 141.557 91.0596C140.631 91.8037 139.409 92.1758 137.892 92.1758C136.321 92.1758 135.067 91.707 134.13 90.7695C133.192 89.8379 132.724 88.3877 132.724 86.4189C132.724 84.6201 133.154 83.1699 134.016 82.0684C134.865 80.9727 136.151 80.4248 137.874 80.4248C138.478 80.4248 138.897 80.3486 139.131 80.1963C139.371 80.0381 139.491 79.7715 139.491 79.3965H142.216C142.228 79.6426 142.233 79.7744 142.233 79.792C142.233 80.7061 141.946 81.4004 141.372 81.875C140.792 82.3496 139.781 82.5869 138.34 82.5869C137.42 82.5869 136.717 82.8154 136.231 83.2725C135.744 83.7412 135.501 84.3096 135.501 84.9775ZM137.892 90.0225C138.624 90.0225 139.207 89.8408 139.641 89.4775C140.074 89.1143 140.291 88.6338 140.291 88.0361C140.291 87.4443 140.074 86.9668 139.641 86.6035C139.213 86.252 138.63 86.0762 137.892 86.0762C137.206 86.0762 136.638 86.2578 136.187 86.6211C135.73 86.9902 135.501 87.4619 135.501 88.0361C135.501 88.6162 135.73 89.0908 136.187 89.46C136.632 89.835 137.2 90.0225 137.892 90.0225ZM154.635 87.5L154.582 88.1855H147.112C147.112 88.7246 147.326 89.1875 147.753 89.5742C148.169 89.9668 148.77 90.1631 149.555 90.1631C150 90.1631 150.399 90.0869 150.75 89.9346C151.084 89.7822 151.304 89.6299 151.41 89.4775L151.577 89.2666H154.415C154.404 89.3486 154.377 89.4512 154.336 89.5742C154.289 89.7207 154.161 89.9521 153.95 90.2686C153.727 90.6143 153.46 90.9131 153.15 91.165C152.81 91.4287 152.332 91.6602 151.717 91.8594C151.073 92.0703 150.352 92.1758 149.555 92.1758C148.02 92.1758 146.775 91.7627 145.82 90.9365C144.865 90.1104 144.387 88.9648 144.387 87.5C144.387 86.0352 144.862 84.8896 145.811 84.0635C146.76 83.2373 147.996 82.8242 149.52 82.8242C151.032 82.8242 152.262 83.2373 153.211 84.0635C154.161 84.8896 154.635 86.0352 154.635 87.5ZM151.269 85.3906C150.853 85.0215 150.27 84.8369 149.52 84.8369C148.77 84.8369 148.19 85.0244 147.78 85.3994C147.358 85.7803 147.147 86.1816 147.147 86.6035H151.875C151.875 86.1699 151.673 85.7656 151.269 85.3906ZM165.446 84.0811C166.278 84.9131 166.694 86.0527 166.694 87.5C166.694 88.9473 166.278 90.0869 165.446 90.9189C164.608 91.7568 163.571 92.1758 162.335 92.1758C161.655 92.1758 161.052 92.0674 160.524 91.8506C159.985 91.6396 159.616 91.4258 159.417 91.209L159.136 90.9014H159.021V95.6035H156.428V83H159.021V84.4766H159.153C159.212 84.3477 159.361 84.1543 159.601 83.8965C159.789 83.709 159.991 83.542 160.208 83.3955C160.448 83.2373 160.759 83.1025 161.139 82.9912C161.526 82.8799 161.925 82.8242 162.335 82.8242C163.571 82.8242 164.608 83.2432 165.446 84.0811ZM163.354 89.2051C163.805 88.7656 164.031 88.1973 164.031 87.5C164.031 86.8086 163.805 86.2373 163.354 85.7861C162.903 85.3467 162.294 85.127 161.526 85.127C160.759 85.127 160.149 85.3467 159.698 85.7861C159.247 86.2373 159.021 86.8086 159.021 87.5C159.021 88.2148 159.25 88.7861 159.707 89.2139C160.164 89.6533 160.77 89.873 161.526 89.873C162.3 89.873 162.909 89.6504 163.354 89.2051Z" fill="white"/>
<circle cx="125" cy="40" r="24" fill="#7360F2"/>
<g clip-path="url(#clip0_1125_2594)">
<path d="M135.87 28.9339C135.133 28.2647 132.187 26.0603 125.557 26.0209C125.557 26.0209 117.764 25.5486 113.964 29.0914C111.832 31.2565 111.095 34.3663 111.018 38.2634C110.94 42.1606 110.824 49.4431 117.764 51.4507V54.4818C117.764 54.4818 117.725 55.7021 118.5 55.9383C119.47 56.2532 120.013 55.3085 120.943 54.3244C121.447 53.7732 122.145 52.9859 122.649 52.3561C127.379 52.7498 131.024 51.8444 131.45 51.6869C132.419 51.372 137.809 50.6634 138.7 43.3809C139.631 35.8228 138.313 31.0597 135.87 28.9339ZM136.684 42.7904C135.948 48.892 131.566 49.2856 130.752 49.5218C130.403 49.6399 127.224 50.4272 123.192 50.191C123.192 50.191 120.206 53.852 119.237 54.8361C119.082 54.9936 118.927 55.0329 118.811 55.0329C118.656 54.9936 118.617 54.7967 118.617 54.5212C118.617 54.1275 118.656 49.4825 118.656 49.4825C112.801 47.8291 113.15 41.6095 113.189 38.3422C113.266 35.0749 113.848 32.4374 115.631 30.6266C118.849 27.6743 125.479 28.1073 125.479 28.1073C131.062 28.1466 133.738 29.8393 134.358 30.4298C136.374 32.2406 137.421 36.5314 136.684 42.7904Z" fill="white"/>
<path fill-rule="evenodd" clip-rule="evenodd" d="M125.649 35.7237C125.66 35.5146 125.836 35.3542 126.042 35.3655C126.822 35.4083 127.466 35.6476 127.924 36.1307C128.38 36.6116 128.602 37.2822 128.644 38.0863C128.655 38.2955 128.496 38.474 128.29 38.485C128.084 38.496 127.909 38.3353 127.898 38.1261C127.862 37.4342 127.677 36.9632 127.386 36.6568C127.098 36.3525 126.657 36.1589 126.002 36.1229C125.796 36.1116 125.638 35.9329 125.649 35.7237Z" fill="white"/>
<path fill-rule="evenodd" clip-rule="evenodd" d="M125.146 33.6674C125.162 33.4586 125.342 33.3026 125.547 33.3191C127.094 33.4431 128.353 33.9856 129.283 35.0156L129.283 35.0162C130.168 35.9997 130.624 37.2784 130.583 38.747C130.577 38.9564 130.405 39.1213 130.199 39.1153C129.993 39.1093 129.83 38.9347 129.836 38.7253C129.872 37.4383 129.476 36.3552 128.732 35.5279C127.956 34.6685 126.889 34.1876 125.489 34.0753C125.283 34.0589 125.129 33.8762 125.146 33.6674Z" fill="white"/>
<path fill-rule="evenodd" clip-rule="evenodd" d="M124.408 31.7684C124.408 31.5589 124.575 31.3891 124.781 31.3891C126.967 31.3891 128.807 32.1324 130.276 33.5828C131.756 35.0438 132.522 37.0379 132.522 39.5235C132.522 39.733 132.354 39.9028 132.148 39.9028C131.942 39.9028 131.775 39.733 131.775 39.5235C131.775 37.2065 131.067 35.4214 129.755 34.1267C128.433 32.8215 126.783 32.1476 124.781 32.1476C124.575 32.1476 124.408 31.9778 124.408 31.7684Z" fill="white"/>
<path d="M126.1 43.1839C126.1 43.1839 126.643 43.2232 126.914 42.8689L127.457 42.1604C127.728 41.8061 128.349 41.5699 129.008 41.9242C129.357 42.121 129.977 42.5147 130.365 42.8296C130.791 43.1445 131.644 43.8531 131.644 43.8531C132.071 44.2074 132.148 44.7191 131.877 45.2702C131.605 45.782 131.218 46.2543 130.714 46.6874C130.326 47.0416 129.938 47.1991 129.551 47.2778H129.395C129.24 47.2778 129.046 47.2385 128.891 47.1991C128.31 47.0416 127.341 46.6086 125.673 45.7032C124.627 45.1128 123.735 44.4829 122.998 43.8924C122.61 43.5775 122.184 43.2232 121.796 42.7902L121.641 42.6328C121.215 42.1997 120.866 41.8061 120.556 41.4124C119.974 40.6645 119.354 39.7591 118.772 38.6963C117.88 37.0429 117.454 36.0588 117.299 35.429C117.26 35.2715 117.221 35.1141 117.221 34.9172V34.7598C117.26 34.3661 117.454 33.9725 117.803 33.5788C118.229 33.1064 118.695 32.7128 119.199 32.3979C119.741 32.1223 120.245 32.201 120.594 32.6341C120.594 32.6341 121.292 33.5001 121.602 33.9331C121.874 34.3268 122.261 34.9566 122.494 35.3109C122.843 35.9407 122.61 36.6099 122.3 36.8855L121.602 37.4366C121.253 37.7121 121.292 38.2633 121.292 38.2633C121.292 38.2633 122.261 42.1604 126.1 43.1839Z" fill="white"/>
</g>
<circle cx="20" cy="20" r="12" fill="black" fill-opacity="0.2"/>
<defs>
<clipPath id="clip0_1125_2594">
<rect width="28" height="30" fill="white" transform="translate(111 26)"/>
</clipPath>
</defs>
</svg>
